<svg xmlns="http://www.w3.org/2000/svg" xmlns:svgjs="http://svgjs.com/svgjs" xmlns:xlink="http://www.w3.org/1999/xlink" width="288" height="288"><svg xmlns="http://www.w3.org/2000/svg" width="288" height="288" fill="none" viewBox="0 0 30 25"><path fill="#0977be" d="M13.5484 11.5448L11.774 14.6186C11.1451 15.7067 10.5165 16.7949 9.88842 17.883C9.20243 19.0699 8.51643 20.2571 7.83044 21.4444C7.25163 22.4455 6.67283 23.4481 6.09402 24.4522C5.98083 24.6481 5.78018 24.9993 5.45862 24.9993H0.784427C0.541328 24.9993 0.392124 24.7558 0.59535 24.447C0.835876 24.0318 1.07555 23.6161 1.31436 23.2C1.81427 22.3369 2.31462 21.4734 2.8154 20.6094C3.37277 19.6466 3.92821 18.6832 4.48172 17.7191C4.99621 16.8268 5.51221 15.9346 6.02971 15.0423C6.60937 14.0378 7.18861 13.033 7.76741 12.028C8.32478 11.0604 8.88215 10.0926 9.43952 9.12463C9.99346 8.16708 10.5478 7.20952 11.1026 6.25197C11.5149 5.53772 11.9232 4.82021 12.3348 4.10531C12.8905 3.14166 13.4404 2.17475 14.007 1.21828C14.2224 0.854632 14.0211 1.19739 14.6552 0.117533C14.6974 0.0439484 14.7752 -0.000940893 14.8591 1.49666e-05H15.0893C15.1763 0.000401883 15.2566 0.0476186 15.3003 0.124062C15.9112 1.20653 15.8386 1.07335 15.9222 1.21894C16.501 2.22306 17.0798 3.22697 17.6586 4.23066C18.0042 4.8287 18.3497 5.42673 18.6953 6.02477C19.395 7.23869 20.0949 8.4526 20.7951 9.66652C21.4086 10.7281 22.0226 11.7895 22.637 12.8506C23.1463 13.732 23.6548 14.6138 24.1624 15.4961C24.7134 16.4497 25.265 17.4033 25.8172 18.357C26.3849 19.3393 26.9519 20.3223 27.5182 21.306C28.0996 22.3128 28.6814 23.3195 29.2637 24.3262C29.4566 24.6207 29.3923 25 29.0109 25H24.2235L24.1727 24.9935C24.1519 24.9865 24.1303 24.9826 24.1084 24.9817C23.0884 24.9817 22.0682 24.9843 21.0478 24.9896C21.017 24.9907 20.9863 24.9937 20.9559 24.9987H20.9321H10.6614C10.4119 24.9987 10.3399 24.746 10.4859 24.4895C10.8949 23.7713 11.3084 23.0531 11.7207 22.335L13.3818 19.4414C13.7896 18.7328 14.1969 18.0238 14.6038 17.3143L14.6726 17.1948C14.7072 17.134 14.7712 17.0966 14.8404 17.0969H15.1331C15.2019 17.0967 15.2656 17.1338 15.3003 17.1942L15.3376 17.2595C15.6385 17.7713 15.9312 18.2884 16.227 18.8042C16.5829 19.4257 16.9385 20.0471 17.2939 20.6682C17.315 20.7117 17.3602 20.7376 17.4078 20.7334C18.7995 20.73 20.191 20.7278 21.5823 20.7269C21.608 20.7269 21.6337 20.7223 21.6742 20.7184L14.9652 9.10896" class="colorfff svgShape"/></svg></svg>