<svg xmlns="http://www.w3.org/2000/svg" data-name="Layer 1" viewBox="0 0 64 64"><circle cx="32" cy="32" r="32" fill="#233551"/><path fill="#edb623" d="M41.73,41.38a13.48,13.48,0,0,0-.18-18.94,1.31,1.31,0,0,0-.16-.14,9.36,9.36,0,0,0-1-.84,13.49,13.49,0,0,0-17.88.88l-.14.13a13.26,13.26,0,0,0-3.88,8.19A11.9,11.9,0,0,0,18.47,32a13.51,13.51,0,0,0,3.82,9.41,2.72,2.72,0,0,0,.3.29,13.5,13.5,0,0,0,18.84,0Q41.58,41.55,41.73,41.38ZM36.5,40.06l.07.13-.13-.09a9.45,9.45,0,0,1-8.87,0l-.08,0a9.24,9.24,0,1,1,9,0Z"/><path fill="#fff" d="M46.61 32.89a1.8 1.8 0 0 0 0 .22c0 .18 0 .35-.05.53s-.07.55-.12.83l-.07.46c-.08.36-.17.71-.27 1.06l0 .11a.24.24 0 0 1 0 .08c-.14.46-.28.86-.42 1.22l-.09.21-.07.15c-.12.28-.25.56-.38.83s-.15.28-.23.41-.27.49-.42.73a3.62 3.62 0 0 1-.27.41 8.17 8.17 0 0 1-.5.7l-.28.37-.12.16-.13.15.34.14.42.16.49.2c.34.14.66.28 1 .43.6.25 1.26.57 2 .93l.58.31c.35.19.7.38 1.06.6l.21.12.63.37.08-.1a21.82 21.82 0 0 0 4-12v-.15H46.63S46.61 32.83 46.61 32.89zM48.45 19.69a3.87 3.87 0 0 1-.37.24c-.58.35-1.17.67-1.75 1l-.48.23c-.52.25-1 .44-1.36.61l-.66.27-.26.1c-.13 0-.26.11-.39.15l-.18.07.11.15.13.16.3.37c.18.24.35.47.52.72s.19.27.28.4l.44.75c.08.14.15.28.23.41s.27.56.39.84l.09.2.08.18c.18.43.32.85.45 1.25a.84.84 0 0 0 0 .1A12 12 0 0 1 46.33 29a3.11 3.11 0 0 1 .08.44c.05.29.09.58.13.88s0 .33 0 .51l0 .16a2.64 2.64 0 0 1 0 .29v.13h7.26v-.15a21.66 21.66 0 0 0-4.22-12.21L49.59 19l-.11.08c-.28.19-.58.37-.88.55zM36.78 11l.17.16.08.07.21.21.33.35.37.42c.1.12.21.25.31.39l.06.06 0 .08h0l.55.76.31.5c.09.14.19.3.29.49a15.39 15.39 0 0 1 .84 1.58l.15.33.12.27c.08.15.16.34.25.55l.06.14a1.89 1.89 0 0 1 .06.18l.12.28.18.5c.13.34.26.72.39 1.11s.19.63.28 1c0 .14.11.33.17.57l0 .08.07.32.15-.05 1-.37s.44-.16.54-.21c.66-.27 1.25-.54 1.81-.82L46 19.8c.53-.27 1-.53 1.48-.81l.41-.26.15-.09.74-.48.13-.09-.1-.12a21.56 21.56 0 0 0-12.07-7.34l-.12.24.13.11zM33 17.41h.18l.36 0c.41.05.83.11 1.22.18l.16 0a9.52 9.52 0 0 1 1.09.26l.36.11.9.31.31.12c.38.16.76.34 1.12.53l.2.11c.31.16.61.34.9.52l.31.2.14.1.15.1.34.19-.14-.43-.37-1.09c-.07-.18-.13-.34-.2-.49l-.11-.3a1.61 1.61 0 0 0-.09-.21l-.26-.6c-.07-.17-.16-.35-.24-.52-.26-.55-.52-1-.8-1.53q-.13-.24-.27-.45c-.1-.17-.2-.32-.29-.45s-.34-.5-.55-.78h0l-.34-.43-.3-.35L36.24 12l-.2-.18a.37.37 0 0 1-.09-.09l-.39-.31-.22-.18-.13-.09L35 11.08 35 11l-.39-.24-.21-.11-.3-.14q-.33-.13-.66-.24a4 4 0 0 0-.69-.15l-.16 0v7.26h.14zM26.19 13.89l-.05.09c-.11.14-.21.29-.3.43a15.78 15.78 0 0 0-1 1.72.31.31 0 0 0-.07.12l0 0v0a3.26 3.26 0 0 0-.16.34c0 .05-.1.21-.1.21a2.35 2.35 0 0 0-.11.24.48.48 0 0 0-.05.11.25.25 0 0 0 0 .09.71.71 0 0 0-.08.19l0 .07-.07.14q-.13.33-.27.69l-.07.18-.14.4c-.08.22-.15.41-.21.61l-.23.7.35-.26.23-.15c.15-.11.31-.2.46-.3l.65-.38.17-.1.24-.13a10.8 10.8 0 0 1 1-.48l.43-.16c.26-.1.51-.2.78-.28l.42-.13c.34-.09.69-.18 1-.25l.16 0c.42-.07.83-.13 1.25-.18l.35 0H31l.33 0h.14V10.29l0-.14h-.14l-.29.06-.12 0-.11 0-.1 0a.25.25 0 0 0-.12 0 .3.3 0 0 0-.12 0l-.08 0-.37.16a2 2 0 0 0-.28.12l-.2.1-.23.14L29.1 11l-.28.19a4 4 0 0 0-.37.28l-.1.08-.12.09c-.14.11-.26.22-.38.33l-.26.25-.08.09a10.19 10.19 0 0 0-1.05 1.23zM15.32 18.24c.35.22.69.44 1 .64s.59.36.9.53l.91.47.08.05c.48.24 1 .46 1.48.68l.26.11c.49.2 1 .39 1.48.57l.15.05.14 0 0-.14.14-.51.12-.42.16-.53c.05-.18.11-.36.17-.54s.14-.42.23-.65l.08-.25.12-.33.11-.26c.08-.2.15-.39.23-.57l0-.08c0-.12.09-.22.14-.34s.15-.36.28-.61a3.62 3.62 0 0 1 .17-.35.87.87 0 0 1 .08-.14 15.1 15.1 0 0 1 1-1.85l.06-.1c.09-.15.18-.28.28-.43h0l0-.06c.08-.11.17-.25.27-.37a13.06 13.06 0 0 1 1.15-1.36l.09-.08a3.83 3.83 0 0 1 .29-.28l.31-.28-.12-.24A21.58 21.58 0 0 0 15.19 18l-.07.15.14.08zM17.37 31.31a1.64 1.64 0 0 1 0-.23c0-.08 0-.15 0-.23s0-.33 0-.5.08-.6.14-.94c0-.13 0-.25.07-.38a11.2 11.2 0 0 1 .3-1.21v-.08c.13-.39.27-.79.46-1.25l.12-.27.07-.17c.12-.26.23-.51.36-.76l.24-.43c.14-.24.28-.49.43-.72l.29-.43.5-.69.31-.38.13-.17.21-.22h-.28c-.48-.17-.94-.36-1.42-.56l-.24-.1-.08 0c-.46-.2-.92-.41-1.38-.64l-.9-.47v-.06H16.7c-.31-.16-.63-.35-.93-.54s-.74-.46-1.12-.71L14.4 19l-.08.11a21.8 21.8 0 0 0-4.21 12.21v.15h7.26zM20.69 41.6l.14-.12-.12-.15a.44.44 0 0 0-.08-.11l-.34-.44-.1-.13c-.11-.16-.22-.31-.33-.48l-.24-.35-.08-.13-.37-.63L19.12 39c-.07-.14-.14-.27-.21-.42a5.2 5.2 0 0 1-.26-.53l-.14-.33c-.05-.1-.09-.2-.13-.3-.17-.42-.3-.81-.42-1.21 0 0 0-.18-.05-.21-.1-.35-.19-.69-.26-1 0 0-.06-.37-.08-.45-.05-.28-.09-.57-.12-.85l0-.51c0-.15 0-.29 0-.42v-.14H10.11v.15a21.83 21.83 0 0 0 4 12l.12.08.23-.13a40.05 40.05 0 0 1 5.56-2.78C20.26 41.75 20.47 41.68 20.69 41.6zM26.66 52.46a2.09 2.09 0 0 1-.2-.22l-.15-.15c-.21-.25-.44-.53-.69-.86a4.37 4.37 0 0 1-.32-.43L25 50.33l-.08-.12-.23-.38-.26-.44 0-.07c-.07-.11-.13-.23-.2-.35l-.09-.17c-.19-.36-.37-.73-.55-1.11-.1-.2-.18-.41-.27-.64a4.85 4.85 0 0 1-.25-.61c-.07-.15-.16-.36-.24-.57l-.22-.63c-.08-.2-.15-.42-.22-.65l-.08-.25 0-.11 0-.12c-.09-.25-.17-.53-.25-.82s-.13-.47-.19-.72l0-.15-.32.12-.27.1c-.24.08-.44.16-.64.24A39.35 39.35 0 0 0 15 45.62l-.09.09.08.1a21.65 21.65 0 0 0 12.26 7.58l.12-.24L27 52.84A4.53 4.53 0 0 1 26.66 52.46zM29.17 46.38l-.12 0c-.36-.08-.72-.17-1.07-.27L27.61 46c-.31-.09-.6-.2-.89-.31l-.14 0-.17-.07c-.38-.15-.76-.33-1.14-.52L25.15 45l-.09-.05q-.43-.24-.87-.51l-.33-.22-.07 0L23.58 44l-.28-.19.07.33a1.3 1.3 0 0 0 0 .13c.07.23.13.42.2.59s.16.43.23.64.15.38.22.55.16.41.24.58l.25.59c.17.36.35.72.53 1.07l.09.15c.06.11.12.22.19.33l0 .07a3.29 3.29 0 0 0 .26.44c.07.13.15.26.23.39l.05.06a4 4 0 0 0 .25.37l.35.48c.21.26.41.52.64.79l.3.32.26.27.07 0c.22.21.44.4.67.59a5.61 5.61 0 0 0 .67.45l.39.23a2.3 2.3 0 0 0 .35.17l.07 0 .21.09a2.55 2.55 0 0 0 .35.11.55.55 0 0 0 .12 0l.29.09.21 0 .13 0 .17 0V46.65l-1-.09C30 46.51 29.58 46.45 29.17 46.38zM37.47 50.57a4.41 4.41 0 0 0 .29-.4c.21-.3.41-.6.6-.91s.38-.66.56-1 .35-.71.53-1.08.33-.74.5-1.14l0-.15c.1-.25.2-.51.3-.79l.45-1.36-.34.23-.34.22-.31.21-.76.44-.32.17c-.35.19-.71.35-1.08.51l-.37.13c-.28.11-.55.21-.86.3l-.37.11c-.35.1-.69.19-1 .26l-.17 0c-.4.08-.8.13-1.24.18l-1 .09v7.21h.17l.14 0 .09 0 .17 0 .32-.09.12 0a1.34 1.34 0 0 0 .31-.12h.07l.1-.06a.76.76 0 0 0 .16-.06l.28-.14c.2-.1.39-.22.58-.34s.31-.21.46-.33l.06-.05.3-.26.14-.12c.17-.14.33-.3.5-.47C36.84 51.35 37.17 51 37.47 50.57zM48.61 45.4l-.26-.15-1-.57-.58-.3c-.67-.35-1.31-.66-1.91-.91L44 43.06l-.09 0-.22-.09-.3-.12-.58-.22-.05.13h0l0-.16-.42-.16-.26 1-.23.78 0 .19-.39 1.14c-.1.3-.21.57-.32.84l0 .16c-.17.42-.35.82-.52 1.2s-.37.76-.56 1.11a11.84 11.84 0 0 1-.59 1.05c-.24.38-.41.66-.59.9h-.07v.08a3.52 3.52 0 0 1-.31.43 13.69 13.69 0 0 1-1 1.2 7.4 7.4 0 0 1-.57.55l-.58.5.54-.11A21.94 21.94 0 0 0 49 45.82l.1-.13L49 45.61z"/><path fill="#edb623" d="M35.21,30a2.67,2.67,0,0,0-1.05-2.2,3.44,3.44,0,0,0-1.55-.68v-.41a1,1,0,1,0-2,0V27a9.29,9.29,0,0,0-1.27.16,1,1,0,0,0-.82,1v7.75a1,1,0,0,0,.88,1,10,10,0,0,0,1.21.09v.33a1,1,0,1,0,2,0v-.45A3.74,3.74,0,0,0,34.52,36a3.11,3.11,0,0,0,1-2.31,2.85,2.85,0,0,0-.85-2.09A2.65,2.65,0,0,0,35.21,30Zm-4.68-.91a8.13,8.13,0,0,1,.84,0h.1l0,0h.13a2.11,2.11,0,0,1,1.29.37l.06.05a.7.7,0,0,1,.17.52.81.81,0,0,1-.49.71H30.53Zm2.59,5.47a2.32,2.32,0,0,1-1.24.42,6.47,6.47,0,0,1-.83,0h-.52V32.71h2.08a1,1,0,0,1,.85,1A1.1,1.1,0,0,1,33.12,34.52Z"/></svg>