<svg xmlns="http://www.w3.org/2000/svg" viewBox="0 0 128 128"><path fill="#818182" d="M64 128C28.7 128 0 99.3 0 64S28.7 0 64 0s64 28.7 64 64-28.7 64-64 64z"/><path fill="#939393" d="M64 120.1c-32 0-58.1-26-58.1-58.1S32 4 64 4s58.1 26 58.1 58.1-26.1 58-58.1 58z"/><path fill="#bcbcbc" d="M64 8c29.8 0 54.1 24.3 54.1 54.1S93.8 116.2 64 116.2 9.9 91.9 9.9 62.1 34.2 8 64 8m0-8C29.7 0 1.9 27.8 1.9 62.1s27.8 62.1 62.1 62.1 62.1-27.8 62.1-62.1S98.3 0 64 0z"/><path fill="#818182" d="M13.6 65.6c0-29.8 24.2-54 54-54 13.9 0 26.6 5.3 36.2 13.9-9.9-10.9-24.2-17.8-40-17.8-29.8 0-54 24.2-54 54 0 15.9 6.9 30.1 17.8 40-8.8-9.5-14-22.2-14-36.1z"/><path fill="#818182" d="M65.8 82l4.5-17L81 61.2l2.6-10-.1-.2-10.4 3.8 7.5-28.4H59.2l-9.9 37.1-8.2 3-2.7 10.2 8.2-3-5.8 21.9h56.9l3.7-13.6z"/><path fill="#bcbcbc" d="M63.2 79.3l4.5-16.9 10.6-3.9 2.6-10-.1-.2-10.4 3.8 7.5-28.4H56.5l-9.8 37.1-8.3 3L35.7 74l8.2-3-5.8 21.9h57l3.6-13.6z"/></svg>