<svg xmlns="http://www.w3.org/2000/svg" viewBox="0 0 128 128"><path fill="#c64a27" d="M64 128C28.7 128 0 99.3 0 64S28.7 0 64 0s64 28.7 64 64-28.7 64-64 64z"/><path fill="#d35127" d="M64 120.1c-32 0-58.1-26-58.1-58.1S32 4 64 4s58.1 26 58.1 58.1-26.1 58-58.1 58z"/><path fill="#f16924" d="M64 8c29.8 0 54.1 24.3 54.1 54.1S93.8 116.2 64 116.2 9.9 91.9 9.9 62.1 34.2 8 64 8m0-8C29.7 0 1.9 27.8 1.9 62.1s27.8 62.1 62.1 62.1 62.1-27.8 62.1-62.1S98.3 0 64 0z"/><path fill="#008ca3" d="M64 128C28.7 128 0 99.3 0 64S28.7 0 64 0s64 28.7 64 64-28.7 64-64 64z"/><path fill="#00a0ba" d="M64 120.1c-32 0-58.1-26-58.1-58.1S32 4 64 4s58.1 26 58.1 58.1-26.1 58-58.1 58z"/><path fill="#40bbd3" d="M64 8c29.8 0 54.1 24.3 54.1 54.1S93.8 116.2 64 116.2 9.9 91.9 9.9 62.1 34.2 8 64 8m0-8C29.7 0 1.9 27.8 1.9 62.1s27.8 62.1 62.1 62.1 62.1-27.8 62.1-62.1S98.3 0 64 0z"/><path fill="#008ca3" d="M13.6 65.6c0-29.7 24.2-54 54-54 13.9 0 26.6 5.3 36.2 13.9C94 14.7 79.7 7.7 63.8 7.7c-29.7 0-54 24.2-54 54 0 15.9 6.9 30.1 17.8 40-8.8-9.4-14-22.2-14-36.1z"/><path fill="#008ca3" d="M46.5 57.8l4.1 3.8c1.2 1.1 3.1 1.1 4.3 0L63 54c2.3-2.1 5.7-2.1 7.9 0l8.2 7.6c1.2 1.1 3.1 1.1 4.3 0l4.1-3.8 6.1-6.1c1.2-1.2 1.2-3.1 0-4.3L73.3 27c-3.5-3.5-9.2-3.5-12.8 0L40.3 47.3c-1.2 1.2-1.2 3.1 0 4.3l6.2 6.2z"/><path fill="#008ca3" d="M102.7 60.7l-5-4.7c-1.2-1.2-3.1-1.1-4.3 0l-8.2 7.6c-2.3 2.1-5.7 2.1-7.9 0L69.1 56c-1.2-1.1-3.1-1.1-4.3 0l-8.2 7.6c-2.3 2.1-5.7 2.1-7.9 0L40.5 56c-1.2-1.1-3.1-1.1-4.3 0l-4.6 4.3c-4.2 3.9-8.6 5.7-2.9 11.5l31.8 31.9c3.5 3.5 9.2 3.5 12.8 0l31.8-31.9c5.6-5.6 1.7-7.2-2.4-11.1z"/><path fill="#40bbd3" d="M43.5 54.8l4.1 3.8c1.2 1.1 3.1 1.1 4.3 0l8.2-7.6c2.3-2.1 5.7-2.1 7.9 0l8.2 7.6c1.2 1.1 3.1 1.1 4.3 0l4.1-3.8 6.1-6.1c1.2-1.2 1.2-3.1 0-4.3L70.4 24.1c-3.5-3.5-9.2-3.5-12.8 0L37.4 44.4c-1.2 1.2-1.2 3.1 0 4.3l6.1 6.1z"/><path fill="#40bbd3" d="M99.8 57.8l-5-4.7c-1.2-1.2-3.1-1.1-4.3 0l-8.2 7.6c-2.3 2.1-5.7 2.1-7.9 0l-8.2-7.6c-1.2-1.1-3.1-1.1-4.3 0l-8.2 7.6c-2.3 2.1-5.7 2.1-7.9 0l-8.2-7.6c-1.2-1.1-3.1-1.1-4.3 0l-4.6 4.3c-4.2 3.9-8.6 5.7-2.9 11.5l31.8 31.9c3.5 3.5 9.2 3.5 12.8 0l31.8-31.9c5.5-5.6 1.7-7.2-2.4-11.1z"/></svg>