<svg xmlns="http://www.w3.org/2000/svg" viewBox="0 0 128 128"><path fill="#c64a27" d="M64 128C28.7 128 0 99.3 0 64S28.7 0 64 0s64 28.7 64 64-28.7 64-64 64z"/><path fill="#d35127" d="M64 120.1c-32 0-58.1-26-58.1-58.1S32 4 64 4s58.1 26 58.1 58.1-26.1 58-58.1 58z"/><path fill="#f16924" d="M64 8c29.8 0 54.1 24.3 54.1 54.1S93.8 116.2 64 116.2 9.9 91.9 9.9 62.1 34.2 8 64 8m0-8C29.7 0 1.9 27.8 1.9 62.1s27.8 62.1 62.1 62.1 62.1-27.8 62.1-62.1S98.3 0 64 0z"/><path fill="#ad722a" d="M64 128C28.7 128 0 99.3 0 64S28.7 0 64 0s64 28.7 64 64-28.7 64-64 64z"/><path fill="#c98b2b" d="M64 120.1c-32 0-58.1-26-58.1-58.1S32 4 64 4s58.1 26 58.1 58.1-26.1 58-58.1 58z"/><path fill="#ebb240" d="M64 8c29.8 0 54.1 24.3 54.1 54.1S93.8 116.2 64 116.2 9.9 91.9 9.9 62.1 34.2 8 64 8m0-8C29.7 0 1.9 27.8 1.9 62.1s27.8 62.1 62.1 62.1 62.1-27.8 62.1-62.1S98.3 0 64 0z"/><path fill="#ad722a" d="M13.6 65.6c0-29.7 24.2-54 54-54 13.9 0 26.6 5.3 36.2 13.9C94 14.7 79.7 7.7 63.8 7.7c-29.7 0-54 24.2-54 54 0 15.9 6.9 30.1 17.8 40-8.8-9.4-14-22.2-14-36.1z"/><path fill="#ad722a" d="M59.7 34.4V23.3h13.9v11h16.9c-.5 5.3 1.5 10.4-2.6 15.4-8 9.8-15.4 20.1-23 30.2-.1.1-.1.3-.2.8h26.7v15.2H73.7v10.8H59.8V96H42.3c.3-5.5-1-10.5 3-15.4 8.1-9.8 15.6-20.2 23.3-30.3.1-.2.2-.4.4-1H44.5v-15c5 .1 10 .1 15.2.1z"/><path fill="#ebb240" d="M56.8 31.4V20.3h13.9v11h16.9c-.5 5.4 1.4 10.5-2.6 15.5-8 9.8-15.4 20.1-23 30.2-.1.1-.1.3-.2.8h26.7V93H70.8v10.8H56.9V93.1H39.4c.3-5.5-1-10.5 3-15.4C50.6 68 58 57.6 65.8 47.5c.1-.2.2-.4.4-1H41.7v-15c4.9-.1 9.9-.1 15.1-.1z"/></svg>