<svg xmlns="http://www.w3.org/2000/svg" viewBox="0 0 64 64"><g data-name="Outline"><path d="M23 52a1 1 0 001-1V46a1 1 0 00-2 0v5A1 1 0 0023 52zM23 42a1 1 0 001-1V36a1 1 0 00-2 0v5A1 1 0 0023 42z"/><path d="M6,60H58a4,4,0,0,0,4-4V51a1,1,0,0,0-1-1,6.5,6.5,0,0,1,0-13,1,1,0,0,0,1-1V30a2.975,2.975,0,0,0-.611-1.8,3.633,3.633,0,0,0,.113-3.82L59.28,20.537a1,1,0,0,0-1.366-.367,5.666,5.666,0,1,1-5.667-9.814,1.006,1.006,0,0,0,.366-1.366L49.946,4.372a2.791,2.791,0,0,0-3.794-1.018L5.2,27H5a3,3,0,0,0-3,3v6a1,1,0,0,0,1,1A6.5,6.5,0,0,1,3,50a1,1,0,0,0-1,1v5A4,4,0,0,0,6,60ZM47.152,5.086a.781.781,0,0,1,1.062.285l2.2,3.808a7.668,7.668,0,0,0,7.6,13.168l1.754,3.038a1.641,1.641,0,0,1-.046,1.713A2.982,2.982,0,0,0,59,27H9.2ZM4,51.941A8.5,8.5,0,0,0,4,35.059V30a1,1,0,0,1,1-1H22v2a1,1,0,0,0,2,0V29H59a1,1,0,0,1,1,1v5.059a8.5,8.5,0,0,0,0,16.882V56a2,2,0,0,1-2,2H24V56a1,1,0,0,0-2,0v2H6a2,2,0,0,1-2-2Z"/><path d="M34 42a4 4 0 10-4-4A4 4 0 0034 42zm0-6a2 2 0 11-2 2A2 2 0 0134 36zM46 46a4 4 0 104 4A4 4 0 0046 46zm0 6a2 2 0 112-2A2 2 0 0146 52zM30.882 50A3.11 3.11 0 0036.2 52.194L48.121 40.122a3.026 3.026 0 000-4.243 3.086 3.086 0 00-4.238 0L31.806 47.8A3.094 3.094 0 0030.882 50zm2.329-.78L45.294 37.292A1 1 0 1146.7 38.711L34.78 50.788a1.109 1.109 0 11-1.569-1.568z"/></g></svg>