<svg xmlns="http://www.w3.org/2000/svg" data-name="Layer 1" viewBox="0 0 128 128"><path d="M8 116H120a8.009 8.009 0 0 0 8-8V50a8.009 8.009 0 0 0-8-8H92.02124q1.05734 1.95117 2.04144 4H120a4 4 0 0 1 4 4v58a4 4 0 0 1-4 4H8a4 4 0 0 1-4-4V50a4 4 0 0 1 4-4H33.93738q.98026-2.045 2.04138-4H8a8.009 8.009 0 0 0-8 8v58A8.00909 8.00909 0 0 0 8 116zM13 120a2 2 0 0 0 0 4H115a2 2 0 0 0 0-4z"/><path d="M90.08936,92.59668a3.4091,3.4091,0,0,1-2.437.90137,1.3777,1.3777,0,0,1-.67291-.25983c-.89447.9812-1.80573,1.96625-2.74493,2.94525a5.35876,5.35876,0,0,0,2.995,1.29211,6.1304,6.1304,0,0,0,.6499.03418,7.51416,7.51416,0,0,0,4.7998-1.86426c2.96582-2.52,3.72217-6.53369,1.72217-9.1377a5.04012,5.04012,0,0,0-.3996-.4209c-.16669.14374-.33453.27509-.50079.42285-.82239.73083-1.61877,1.514-2.4101,2.321a1.10238,1.10238,0,0,1,.13812.11359C91.81885,89.71289,91.49609,91.40186,90.08936,92.59668Z"/><path d="M78.54486 101.43024a56.35 56.35 0 0 1-5.65735 4.00861c.92041.049 1.84424.08264 2.77411.08264 1.16211 0 2.33154-.03809 3.50146-.11572a79.79468 79.79468 0 0 0 10.49561-1.63232 86.36522 86.36522 0 0 1 8.915-1.47852c6.67285-.62451 12.5791.2002 17.55566 2.45117a2.00034 2.00034 0 0 0 2.82129-1.71094l1.21289-21.75732a2 2 0 0 0-1.17285-1.93359 33.26677 33.26677 0 0 0-8.27734-2.45618 5.99031 5.99031 0 0 1-3.43848 2.13147 24.32553 24.32553 0 0 0-4.23962 1.34094 33.47063 33.47063 0 0 1 13.056 2.1l-.98 17.58008a40.01988 40.01988 0 0 0-16.91016-1.728 89.36735 89.36735 0 0 0-9.334 1.54 75.65109 75.65109 0 0 1-9.96777 1.562C78.781 101.42236 78.66321 101.42328 78.54486 101.43024zM76.11572 87.106a5.42891 5.42891 0 0 0 2.73242-.75732 7.34715 7.34715 0 0 0 3.30957-4.70068v-.00049c.89893-3.78564-.86621-7.46826-4.01953-8.38477a5.2754 5.2754 0 0 0-4.15381.55615 7.34441 7.34441 0 0 0-3.30859 4.7002c-.89893 3.78564.86621 7.46875 4.019 8.38428A5.07311 5.07311 0 0 0 76.11572 87.106zm-1.54834-7.66309a3.40482 3.40482 0 0 1 1.43066-2.168 1.43017 1.43017 0 0 1 .71729-.21436 1.11125 1.11125 0 0 1 .30713.04346c.93066.27051 1.66992 1.82324 1.24365 3.61963A3.40446 3.40446 0 0 1 76.835 82.89209a1.29164 1.29164 0 0 1-1.02393.17041C74.88037 82.792 74.14111 81.23926 74.56738 79.44287zM76.99188 26.76794a7.9184 7.9184 0 0 1 4.82306-.78406 5.87084 5.87084 0 0 1 3.791 3.10742A2 2 0 1 0 89.061 27.07568a9.7646 9.7646 0 0 0-6.39844-5.001 10.48134 10.48134 0 0 0-4.71136.13531l4.16125-9.44781a6.368 6.368 0 0 0-.48639-6.0661A5.84039 5.84039 0 0 0 76.74 4c-.13239 0-.26605.00458-.40009.01385-3.13538.2171-5.50958 2.02673-7.1806 3.45221a10.54572 10.54572 0 0 0-3.845-2.48553 3.99987 3.99987 0 0 0-2.62866 0A10.54726 10.54726 0 0 0 58.84052 7.466c-1.67108-1.42548-4.04529-3.235-7.18127-3.45221Q51.4581 3.99988 51.26025 4A5.84068 5.84068 0 0 0 46.374 6.69623a6.36761 6.36761 0 0 0-.48645 6.066l5.33234 12.10663a1.97619 1.97619 0 0 0-.14813 1.81982A121.49775 121.49775 0 0 0 39.42041 43.95111a62.569 62.569 0 0 0-6.71863 17.23553 18.13928 18.13928 0 0 1 3.5365 3.20941C38.15656 49.40881 51.30121 32.64917 55.23846 27.9165H72.76135A112.223 112.223 0 0 1 87.48169 50.64044a36.36322 36.36322 0 0 1 3.84119-1.224c-.81213-1.7774-1.72113-3.597-2.74329-5.46533A121.39545 121.39545 0 0 0 76.99188 26.76794zM55.17114 23.9165l-5.623-12.76666A2.18087 2.18087 0 0 1 51.26025 8q.06079 0 .12268.00427c3.676.25452 6.25354 4.57483 7.955 4.57483a1.07428 1.07428 0 0 0 .90186-.56213A7.99278 7.99278 0 0 1 64 8.75842 7.99309 7.99309 0 0 1 67.76031 12.017a1.07447 1.07447 0 0 0 .90186.56213c1.70135 0 4.27863-4.32031 7.9549-4.57483C76.65826 8.0014 76.69934 8 76.73975 8a2.18073 2.18073 0 0 1 1.7121 3.14984l-5.623 12.76666zM12.5 76a9.99434 9.99434 0 0 1 18.92841-4.48553 17.81847 17.81847 0 0 1 3.985-.91687 13.99747 13.99747 0 1 0-15.9873 19.05151c-.02484-.38617-.0589-.77-.0589-1.16235a17.964 17.964 0 0 1 .25739-2.91107A10.0009 10.0009 0 0 1 12.5 76z"/><path d="M24.63446 75.77655c-1.68445-.90912-4.0119-.997-4.0119-2.30682 0-.62646.48535-1.23682 1.78467-1.23682a3.23355 3.23355 0 0 1 2.19189.82959 1.03673 1.03673 0 0 0 .67334.34424.83857.83857 0 0 0 .84521-.82959.90148.90148 0 0 0-.15674-.501A4.00539 4.00539 0 0 0 23.14307 70.667v-.90771a.72807.72807 0 1 0-1.45605 0v.89209c-2.00391.21924-2.88037 1.4248-2.88037 2.81836 0 2.7041 2.928 2.93414 4.59113 3.68744A18.14618 18.14618 0 0 1 24.63446 75.77655zM21.605 79.81177a3.95013 3.95013 0 0 1-1.7652-1.08228.919.919 0 0 0-.689-.34424.84226.84226 0 0 0-.70459 1.28369 4.25 4.25 0 0 0 2.40326 1.68213Q21.192 80.56143 21.605 79.81177zM95.81006 53.80127a2.00313 2.00313 0 0 0-2.08984-.86475c-6.03125 1.27637-11.896 4.418-17.43164 9.3374a89.39952 89.39952 0 0 0-6.60937 6.76172 75.60391 75.60391 0 0 1-7.11377 7.16113 47.77312 47.77312 0 0 1-8.46509 5.699 17.83578 17.83578 0 0 1 1.05219 3.9588 51.59806 51.59806 0 0 0 9.98761-6.5968A79.78664 79.78664 0 0 0 72.6377 71.728a86.4625 86.4625 0 0 1 6.30811-6.46436 35.34591 35.34591 0 0 1 14.28174-8.09912l9.61328 14.751a40.05373 40.05373 0 0 0-14.6543 8.61426 89.549 89.549 0 0 0-6.61133 6.76416 75.61655 75.61655 0 0 1-7.11133 7.15918 45.65776 45.65776 0 0 1-14.91211 8.4668L54.223 94.7431a17.95 17.95 0 0 1-2.12836 4.06018l4.92828 7.562a2.00032 2.00032 0 0 0 2.21045.83545l.4209-.12109a49.2583 49.2583 0 0 0 17.38477-9.56592 79.83979 79.83979 0 0 0 7.49414-7.52734A86.42818 86.42818 0 0 1 90.84375 83.52c5.00977-4.45264 10.25928-7.28369 15.60254-8.41406a1.99983 1.99983 0 0 0 1.26172-3.04834zM37.36719 102.48676a14 14 0 1 0-14-14A14.01584 14.01584 0 0 0 37.36719 102.48676zm0-24a10 10 0 1 1-10 10A10 10 0 0 1 37.36719 78.48676z"/><path d="M36.5542 94.019v.87646a.72807.72807 0 1 0 1.45605 0V94.019c2.09766-.20361 3.19385-1.33105 3.19385-3.05273 0-3.91406-5.71436-2.959-5.71436-5.00977 0-.62646.48535-1.23682 1.78467-1.23682a3.23355 3.23355 0 0 1 2.19189.82959 1.03673 1.03673 0 0 0 .67334.34424.83857.83857 0 0 0 .84521-.82959.90148.90148 0 0 0-.15674-.501 4.00539 4.00539 0 0 0-2.81787-1.40918v-.90771a.72807.72807 0 1 0-1.45605 0v.89209c-2.00391.21924-2.88037 1.4248-2.88037 2.81836 0 3.77295 5.71436 2.72363 5.71436 5.00977 0 .97021-.689 1.43994-2.11377 1.43994A3.58873 3.58873 0 0 1 34.707 91.21631a.919.919 0 0 0-.689-.34424.84226.84226 0 0 0-.70459 1.28369A4.4904 4.4904 0 0 0 36.5542 94.019zM64.11084 60.41113a7.32013 7.32013 0 0 1-5.23535-2.42627 1.86951 1.86951 0 0 0-1.4043-.70215 1.7169 1.7169 0 0 0-1.43652 2.61768 9.15635 9.15635 0 0 0 6.60742 3.79834v1.7876a1.48446 1.48446 0 1 0 2.96875 0v-1.7876c4.27783-.415 6.51221-2.71338 6.51221-6.22461 0-7.98047-11.65137-6.0332-11.65137-10.21484 0-1.27686.98975-2.522 3.63916-2.522a6.59372 6.59372 0 0 1 4.46875 1.69189 2.11643 2.11643 0 0 0 1.37256.70264 1.71039 1.71039 0 0 0 1.72412-1.69189 1.84477 1.84477 0 0 0-.31934-1.02148 8.16751 8.16751 0 0 0-5.74609-2.873V39.69385a1.48446 1.48446 0 1 0-2.96875 0v1.81982c-4.08594.44678-5.873 2.90479-5.873 5.74561 0 7.69287 11.65088 5.5542 11.65088 10.21484C68.41992 59.45313 67.01563 60.41113 64.11084 60.41113z"/></svg>