<svg xmlns="http://www.w3.org/2000/svg" data-name="Layer 1" viewBox="0 0 64 64"><path d="M8.352 35a12.729 12.729 0 0 1 2.364-13.2l2 2.012L14 13 3.234 14.285 5.3 16.36c-4.291 5-4.447 12.166-.185 16.446A10.426 10.426 0 0 0 8.352 35zM55.648 11a12.729 12.729 0 0 1-2.364 13.2l-2-2.012L50 33l10.766-1.285L58.7 29.639c4.291-5 4.447-12.165.185-16.445A10.426 10.426 0 0 0 55.648 11zM42 12A10 10 0 1 0 32 22 10 10 0 0 0 42 12zM29 14.122V14h2v.122a.879.879 0 0 0 .878.878h.244A.879.879 0 0 0 33 14.122v-.244A.879.879 0 0 0 32.122 13h-.244A2.881 2.881 0 0 1 29 10.122V9.878a2.871 2.871 0 0 1 2-2.726V6h2V7.152a2.871 2.871 0 0 1 2 2.726V10H33V9.878A.879.879 0 0 0 32.122 9h-.244A.879.879 0 0 0 31 9.878v.244a.879.879 0 0 0 .878.878h.244A2.881 2.881 0 0 1 35 13.878v.244a2.871 2.871 0 0 1-2 2.726V18H31V16.848A2.871 2.871 0 0 1 29 14.122zM35 29a3 3 0 0 0-6 0c0 1.657 1.343 7 3 7S35 30.657 35 29zM53 38a2 2 0 0 0-2-2H13a2 2 0 0 0 0 4h1.862l-4.756 9.547A1 1 0 0 0 10 50h0l0 .033v.016a6 6 0 0 0 11.994 0v-.016L22 50h0a1 1 0 0 0-.1-.453L17.138 40H30V56.09A6 6 0 0 0 25 62H39a6 6 0 0 0-5-5.91V40H46.862l-4.756 9.547A1 1 0 0 0 42 50h0l0 .033v.016a6 6 0 0 0 11.994 0v-.016L54 50h0a1 1 0 0 0-.1-.453L49.138 40H51A2 2 0 0 0 53 38zM19.382 48.993H12.618L16 42.2zm32 0H44.618L48 42.2z"/></svg>